# xmcd CD database file
#
# Track frame offsets:
#	150
#	25644
#	42209
#	59091
#	79157
#	96208
#	141483
#	162707
#	180096
#	194326
#	210896
#	236321
#	246437
#	263471
#	276900
#	297971
#	307408
#	323772
#	341999
#
# Disc length: 4726 seconds
#
# Revision: 0
# Processed by: cddbd v1.5.2PL0 Copyright (c) Steve Scherf et al.
# Submitted via: CDex 1.51
#
DISCID=1c127413
DTITLE=Various Artist - Windswept Roots Masters
DYEAR=2002
DGENRE=Country
TTITLE0=America the Beautiful - Odetta
TTITLE1=Time of the Preacher - Johnny Cash
TTITLE2=Heart of a Clown - Willie Nelson
TTITLE3=Still Going Down the Road - Tab Benoit
TTITLE4=The Boxer - Waylon Jennings
TTITLE5=The Drifter - Clarence Brown
TTITLE6=Raisin' Cain - Jesse Dayton
TTITLE7=Moonlight Becomes You - Willie Nelson
TTITLE8=Intermezzo - Paul Buskirk
TTITLE9=Muther Trucker - Billy Joe Shaver
TTITLE10=Brother Can You Spare A Dime - Odetta
TTITLE11=Lonestar Hoedown - Roadkings
TTITLE12=Me and Paul - Willie Nelson
TTITLE13=Train of Dreams - Jesse Dayton
TTITLE14=Broke, Raggedy and Hungry - Dr. John
TTITLE15=Please Don't Talk About Me When I'm Gone - Willie Nelson
TTITLE16=What A Wonderful World - Ray Price
TTITLE17=Just One Love - Willie Nelson and Kimmie Rhodes
TTITLE18=Bloody Mary Morning - Supersuckers
EXTD=YEAR: 2002
EXTT0=
EXTT1=
EXTT2=
EXTT3=
EXTT4=
EXTT5=
EXTT6=
EXTT7=
EXTT8=
EXTT9=
EXTT10=
EXTT11=
EXTT12=
EXTT13=
EXTT14=
EXTT15=
EXTT16=
EXTT17=
EXTT18=
PLAYORDER=
